<?xml version="1.0" encoding="UTF-8" standalone="no"?>
<!-- Created with Inkscape (http://www.inkscape.org/) -->

<svg
   width="500mm"
   height="500mm"
   viewBox="0 0 500 500"
   version="1.1"
   id="svg1"
   inkscape:version="1.3.2 (091e20e, 2023-11-25, custom)"
   sodipodi:docname="Logotipo Tiro de Guerra.svg"
   xmlns:inkscape="http://www.inkscape.org/namespaces/inkscape"
   xmlns:sodipodi="http://sodipodi.sourceforge.net/DTD/sodipodi-0.dtd"
   xmlns="http://www.w3.org/2000/svg"
   xmlns:svg="http://www.w3.org/2000/svg">
  <sodipodi:namedview
     id="namedview1"
     pagecolor="#505050"
     bordercolor="#eeeeee"
     borderopacity="1"
     inkscape:showpageshadow="0"
     inkscape:pageopacity="0"
     inkscape:pagecheckerboard="0"
     inkscape:deskcolor="#505050"
     inkscape:document-units="mm"
     inkscape:zoom="0.080158361"
     inkscape:cx="492.77455"
     inkscape:cy="792.18187"
     inkscape:window-width="1366"
     inkscape:window-height="705"
     inkscape:window-x="-8"
     inkscape:window-y="-8"
     inkscape:window-maximized="1"
     inkscape:current-layer="layer1" />
  <defs
     id="defs1" />
  <g
     inkscape:label="Camada 1"
     inkscape:groupmode="layer"
     id="layer1">
    <path
       id="ellipse7"
       style="font-variation-settings:normal;vector-effect:none;fill:#c5ccbc;fill-opacity:1;fill-rule:evenodd;stroke:none;stroke-width:2.33799;stroke-linecap:butt;stroke-linejoin:miter;stroke-miterlimit:4;stroke-dasharray:21.425, 257.099;stroke-dashoffset:89.9844;stroke-opacity:1;-inkscape-stroke:none;stop-color:#000000"
       d="M 249.59486,0 A 249.59529,250.00002 0 0 0 0,249.99998 249.59529,250.00002 0 0 0 249.59486,500 249.59529,250.00002 0 0 0 499.19081,249.99998 249.59529,250.00002 0 0 0 249.59486,0 Z m -0.0748,17.332798 A 232.51697,232.77581 0 0 1 482.03637,250.10899 232.51697,232.77581 0 0 1 249.52002,482.88412 232.51697,232.77581 0 0 1 17.00254,250.10899 232.51697,232.77581 0 0 1 249.52002,17.332798 Z m 17.58378,76.37702 -0.31818,286.172752 152.75076,0.0991 0.22456,-118.48808 -64.80309,-0.11228 -0.33686,26.95483 h 31.67111 l -0.11227,53.45928 -80.79276,-0.73542 -0.18279,-191.65152 c 0,0 11.01723,2.62889 16.39704,4.37942 5.34183,1.73813 10.60023,3.76028 15.72324,6.06495 4.4588,2.00581 8.79079,4.29965 13.02824,6.73864 5.19347,2.98931 10.2508,6.2246 15.16175,9.65835 4.44284,3.10642 8.64167,6.54949 12.91595,9.88403 4.78961,3.73651 9.64747,7.39368 14.26347,11.3427 3.36215,2.87633 9.77061,8.98566 9.77061,8.98566 l 22.12617,-22.91221 c 0,0 -5.92325,-6.65224 -9.098,-9.77063 -3.87696,-3.80826 -8.01598,-7.34223 -12.12872,-10.89462 -4.34565,-3.75364 -8.66256,-7.55563 -13.25281,-11.00586 -5.17103,-3.88676 -10.6603,-7.33264 -16.06014,-10.89469 -6.83087,-4.50596 -13.5654,-9.18276 -20.66525,-13.25166 -6.30441,-3.613 -12.87187,-6.75528 -19.43003,-9.88402 -6.882,-3.2832 -13.8412,-6.41314 -20.88988,-9.32144 -5.84884,-2.41323 -11.75107,-4.71108 -17.74454,-6.73871 -5.21733,-1.76501 -15.83666,-4.717401 -15.83666,-4.717401 -4.11815,-1.226706 -8.38636,-2.305689 -12.38086,-3.361088 z m -42.08463,1.416886 c 0,0 -16.36741,4.336533 -24.37094,7.075566 -7.31404,2.50301 -14.48119,5.43714 -21.56362,8.5354 -7.76232,3.39569 -15.39671,7.09506 -22.91221,11.0069 -9.21834,4.79823 -18.39936,9.71251 -27.17826,15.27411 -7.75704,4.91417 -15.20147,10.326 -22.46195,15.94787 -5.41978,4.19646 -10.622213,8.67541 -15.724369,13.25278 -5.085071,4.56206 -13.83185,13.24001 -14.824914,14.15111 -5.799202,5.32087 -8.695096,8.23001 -12.803613,12.57912 -5.538313,5.86243 -11.042433,11.79227 -15.947869,18.19367 -1.642005,2.14279 -3.083028,4.43579 -4.49169,6.7387 -0.665132,1.08738 -1.867146,3.33793 -1.867146,3.33793 l 25.651282,33.2752 c 0,0 13.92171,-16.33889 21.282878,-24.14309 5.779666,-6.12758 11.765725,-12.06752 17.948181,-17.78858 7.90704,-7.31692 24.46012,-21.12431 24.46012,-21.12431 l -0.15851,188.37303 38.91287,0.15957 0.45578,-210.2713 c 0,0 4.28287,-3.70229 6.62643,-5.2778 3.81135,-2.56221 7.96305,-4.58183 12.01759,-6.73871 4.77426,-2.53978 9.55822,-5.07717 14.48801,-7.30018 5.3297,-2.4033 10.76031,-4.60042 16.28471,-6.51408 5.38405,-1.86501 16.39704,-4.82974 16.39704,-4.82974 z" />
  </g>
</svg>
